<?xml version="1.0" encoding="utf-8"?>
<!-- Generator: Adobe Illustrator 26.5.0, SVG Export Plug-In . SVG Version: 6.00 Build 0)  -->
<svg version="1.1" id="Layer_1" xmlns="http://www.w3.org/2000/svg" xmlns:xlink="http://www.w3.org/1999/xlink" x="0px" y="0px"
	 viewBox="0 0 129 129" style="enable-background:new 0 0 129 129;" xml:space="preserve">
<style type="text/css">
	.st0{fill:#020203;}
	.st1{fill:#FFFFFF;}
</style>
<g>
	<g>
		<path class="st0" d="M129,60.83V129H60.83C27.23,129,0,101.77,0,68.17v-7.34C0,27.23,27.23,0,60.83,0h7.34
			C101.77,0,129,27.23,129,60.83z"/>
	</g>
	<g>
		<path class="st1" d="M104.65,68.67c-1.38,0-2.5-1.12-2.5-2.5c0-20.63-16.79-37.42-37.42-37.42c-20.63,0-37.42,16.79-37.42,37.42
			c0,1.38-1.12,2.5-2.5,2.5s-2.5-1.12-2.5-2.5c0-23.39,19.03-42.42,42.42-42.42s42.42,19.03,42.42,42.42
			C107.15,67.55,106.03,68.67,104.65,68.67z"/>
	</g>
	<g>
		<circle class="st1" cx="64.42" cy="68.33" r="31.74"/>
	</g>
	<g>
		<path class="st1" d="M113.14,69.49c-0.2,11.21-4.56,12.6-7.1,11.93c-2.53,0.67-6.9-0.71-7.1-11.93c0.2-11.21,4.56-12.6,7.1-11.93
			C108.57,56.89,112.94,58.28,113.14,69.49z"/>
	</g>
	<g>
		<path class="st1" d="M30.06,69.49c-0.2,11.21-4.56,12.6-7.1,11.93c-2.53,0.67-6.9-0.71-7.1-11.93c0.2-11.21,4.56-12.6,7.1-11.93
			C25.49,56.89,29.85,58.28,30.06,69.49z"/>
	</g>
	<g>
		<g>
			<g>
				<path class="st0" d="M64.47,98.57c-0.28,0-0.5-0.22-0.5-0.5s0.22-0.5,0.5-0.5c15.8,0,28.65-12.9,28.65-28.75
					c0-0.28,0.22-0.5,0.5-0.5s0.5,0.22,0.5,0.5C94.12,85.23,80.82,98.57,64.47,98.57z"/>
			</g>
		</g>
		<g>
			<g>
				<path class="st0" d="M64.47,95.61c-0.28,0-0.5-0.22-0.5-0.5s0.22-0.5,0.5-0.5c14.17,0,25.7-11.57,25.7-25.79
					c0-0.28,0.22-0.5,0.5-0.5s0.5,0.22,0.5,0.5C91.17,83.59,79.19,95.61,64.47,95.61z"/>
			</g>
		</g>
	</g>
	<g>
		<g>
			<g>
				<path class="st0" d="M34.83,68.67c-0.28,0-0.5-0.22-0.5-0.5c0-16.35,13.35-29.65,29.75-29.65c0.28,0,0.5,0.22,0.5,0.5
					s-0.22,0.5-0.5,0.5c-15.85,0-28.75,12.85-28.75,28.65C35.33,68.44,35.11,68.67,34.83,68.67z"/>
			</g>
		</g>
		<g>
			<g>
				<path class="st0" d="M37.79,68.67c-0.28,0-0.5-0.22-0.5-0.5c0-14.72,12.02-26.7,26.79-26.7c0.28,0,0.5,0.22,0.5,0.5
					s-0.22,0.5-0.5,0.5c-14.22,0-25.79,11.53-25.79,25.7C38.29,68.44,38.07,68.67,37.79,68.67z"/>
			</g>
		</g>
	</g>
	<g>
		<circle class="st0" cx="64.42" cy="68.33" r="13.23"/>
	</g>
	<g>
		<circle class="st1" cx="64.42" cy="68.33" r="7.49"/>
	</g>
	<g>
		<circle class="st0" cx="64.42" cy="68.33" r="4.41"/>
	</g>
	<g>
		<path class="st0" d="M55.97,89.73c-0.69-0.62-1.75-0.57-2.37,0.12l-2.23,2.46c-0.09-0.14-0.18-0.27-0.29-0.4l4.04-4.46
			c0.62-0.69,0.57-1.75-0.12-2.37c-0.69-0.62-1.75-0.57-2.37,0.12l-4,4.41l-0.44-0.4l4.96-5.47c0.62-0.69,0.57-1.75-0.12-2.37
			c-0.69-0.62-1.75-0.57-2.37,0.12l-4.96,5.47l-0.38-0.35l4-4.41c0.62-0.69,0.57-1.75-0.12-2.37c-0.69-0.62-1.75-0.57-2.37,0.12
			l-4.52,4.98c-0.06-0.01-0.11-0.01-0.17-0.02l1.41-2.7c0.48-0.92,0.14-1.94-0.76-2.28c-0.9-0.34-2.03,0.13-2.51,1.05l-3.89,7.43
			L34,91.06c-3.16,3.49-2.9,8.89,0.59,12.05c3.2,2.9,7.99,2.91,11.2,0.21l0.07,0.06l0.78-0.87l4.24-4.68l5.2-5.73
			C56.71,91.42,56.66,90.36,55.97,89.73z"/>
		<path class="st1" d="M40.32,105.81c-2.18,0-4.35-0.78-6.06-2.33c-1.79-1.62-2.84-3.84-2.96-6.25s0.71-4.72,2.33-6.51l2.36-2.61
			l3.86-7.37c0.59-1.13,1.99-1.71,3.13-1.28c0.55,0.21,0.97,0.62,1.17,1.15c0.19,0.49,0.18,1.05-0.03,1.57l2.34-2.58
			c0.39-0.43,0.93-0.68,1.51-0.71c0.58-0.03,1.14,0.17,1.57,0.56c0.43,0.39,0.68,0.93,0.71,1.51c0,0.08,0,0.16,0,0.23l0.05-0.05
			c0.81-0.89,2.19-0.96,3.08-0.15c0.89,0.81,0.96,2.19,0.15,3.08l-0.11,0.12c0.11-0.02,0.23-0.04,0.35-0.04
			c0.58-0.02,1.14,0.17,1.57,0.56s0.68,0.93,0.71,1.51c0.03,0.58-0.17,1.14-0.56,1.57l-0.94,1.04c0.61-0.08,1.25,0.1,1.75,0.54l0,0
			c0.43,0.39,0.68,0.93,0.71,1.51c0.03,0.58-0.17,1.14-0.56,1.57L45.9,104.09l-0.12-0.11C44.17,105.2,42.25,105.81,40.32,105.81z
			 M42.19,80.32c-0.56,0-1.16,0.35-1.45,0.89l-3.97,7.53l-2.4,2.65c-1.44,1.59-2.18,3.65-2.07,5.79s1.04,4.12,2.63,5.56
			c2.96,2.68,7.49,2.76,10.55,0.2l0.33-0.28l0.02,0.02l9.89-10.91c0.21-0.23,0.32-0.54,0.3-0.85c-0.02-0.31-0.15-0.6-0.39-0.82l0,0
			c-0.48-0.44-1.23-0.4-1.67,0.08l-2.67,2.95l-0.35-0.56c-0.08-0.12-0.16-0.24-0.25-0.36l-0.26-0.33l4.33-4.77
			c0.21-0.23,0.32-0.54,0.3-0.85c-0.02-0.31-0.15-0.6-0.39-0.82c-0.23-0.21-0.55-0.33-0.85-0.3c-0.31,0.02-0.6,0.15-0.82,0.39
			l-4.33,4.78l-1.18-1.07l5.3-5.84c0.44-0.48,0.4-1.23-0.08-1.67c-0.48-0.43-1.23-0.4-1.67,0.08l-5.3,5.84l-1.12-1.02l4.33-4.78
			c0.21-0.23,0.32-0.53,0.3-0.85c-0.02-0.31-0.15-0.6-0.39-0.81c-0.23-0.21-0.54-0.32-0.85-0.3c-0.31,0.01-0.6,0.15-0.82,0.39
			l-4.7,5.18l-1.13-0.15l1.75-3.34c0.18-0.34,0.21-0.69,0.09-1c-0.1-0.27-0.31-0.47-0.59-0.57C42.49,80.35,42.34,80.32,42.19,80.32z
			"/>
	</g>
</g>
</svg>
