<?xml version="1.0" encoding="UTF-8"?><svg id="MARKS" xmlns="http://www.w3.org/2000/svg" viewBox="0 0 1860 612"><path d="m1404.7,133.12l63.12,345.76h-100.16l-25.07-198.92-54.78,198.92h-89.89l-54.78-198.92-25.07,198.92h-100.15l63.12-345.76h105.96l55.88,203.16,55.88-203.16h105.96Zm-476.91,0l-81.54,233.33-81.54-233.33h-103.74l130.59,345.76h109.39l130.59-345.76h-103.74Zm685.34,257.25V133.12h-95.82v345.76h237.67l33.43-88.52h-175.27Zm-1051.13,123.31v48.33h-48.33l-207.67-207.67-207.67,207.67h-48.33v-48.33s207.67-207.67,207.67-207.67L50,98.33v-48.33s48.33,0,48.33,0l207.67,207.67,207.67-207.67h48.33v48.33l-207.67,207.67s207.67,207.67,207.67,207.67ZM356.77,50l-50.77,50.77-50.77-50.77h-87.33l138.09,138.09L444.09,50h-87.33Zm87.33,512l-138.09-138.09-138.09,138.09h87.33l50.77-50.77,50.77,50.77h87.33Zm117.91-205.23l-50.77-50.77,50.77-50.77v-87.33l-138.09,138.09,138.09,138.09v-87.33ZM50,444.09l138.09-138.09L50,167.91v87.33l50.77,50.77-50.77,50.77v87.33Z"/></svg>