<?xml version="1.0" encoding="UTF-8"?>
<svg id="Layer_2" data-name="Layer 2" xmlns="http://www.w3.org/2000/svg" viewBox="0 0 792 69">
  <defs>
    <style>
      .cls-1 {
        fill: #fff;
      }
    </style>
  </defs>
  <g id="Layer_1" data-name="Layer 1">
    <path class="cls-1" d="M105.15,30.36c.84,0,1.53.7,1.53,1.54s-.69,1.54-1.53,1.54-1.53-.7-1.53-1.54.69-1.54,1.53-1.54ZM105.15,21.2c-.84,0-1.53.7-1.53,1.54s.69,1.54,1.53,1.54,1.53-.7,1.53-1.54-.69-1.54-1.53-1.54ZM105.15,25.77c-.84,0-1.53.7-1.53,1.54s.69,1.54,1.53,1.54,1.53-.7,1.53-1.54-.69-1.54-1.53-1.54ZM109.08,14.32c-.84,0-1.53.7-1.53,1.54s.69,1.54,1.53,1.54,1.53-.7,1.53-1.54-.69-1.54-1.53-1.54ZM109.08,10.33c-.52,0-.95.43-.95.96s.43.96.95.96.95-.43.95-.96-.43-.96-.95-.96ZM105.15,38.04c.84,0,1.53-.7,1.53-1.54s-.69-1.54-1.53-1.54-1.53.7-1.53,1.54.69,1.54,1.53,1.54ZM105.15,16.61c-.84,0-1.53.7-1.53,1.54s.69,1.54,1.53,1.54,1.53-.7,1.53-1.54-.69-1.54-1.53-1.54ZM101.23,32.66c-.84,0-1.53.7-1.53,1.54s.69,1.54,1.53,1.54,1.53-.7,1.53-1.54-.69-1.54-1.53-1.54ZM101.23,30.57c.52,0,.95-.43.95-.96s-.43-.96-.95-.96-.95.43-.95.96.43.96.95.96ZM93.37,30.57c.52,0,.95-.43.95-.96s-.43-.96-.95-.96-.95.43-.95.96.43.96.95.96ZM97.3,42.03c.52,0,.95-.43.95-.96s-.43-.96-.95-.96-.95.43-.95.96.43.96.95.96ZM101.23,19.49c-.52,0-.95.43-.95.96s.43.96.95.96.95-.43.95-.96-.43-.96-.95-.96ZM93.37,19.49c-.52,0-.95.43-.95.96s.43.96.95.96.95-.43.95-.96-.43-.96-.95-.96ZM105.15,12.02c-.84,0-1.53.7-1.53,1.54s.69,1.54,1.53,1.54,1.53-.7,1.53-1.54-.69-1.54-1.53-1.54ZM105.15,8.03c-.52,0-.95.43-.95.96s.43.96.95.96.95-.43.95-.96-.43-.96-.95-.96ZM101.23,40.33c.84,0,1.53-.7,1.53-1.54s-.69-1.54-1.53-1.54-1.53.7-1.53,1.54.69,1.54,1.53,1.54ZM109.08,23.48c-.84,0-1.53.7-1.53,1.54s.69,1.54,1.53,1.54,1.53-.7,1.53-1.54-.69-1.54-1.53-1.54ZM126.5,18.91c-.84,0-1.53.7-1.53,1.54s.69,1.54,1.53,1.54,1.53-.7,1.53-1.54-.69-1.54-1.53-1.54ZM126.5,14.32c-.84,0-1.53.7-1.53,1.54s.69,1.54,1.53,1.54,1.53-.7,1.53-1.54-.69-1.54-1.53-1.54ZM113,25.77c-.84,0-1.53.7-1.53,1.54s.69,1.54,1.53,1.54,1.53-.7,1.53-1.54-.69-1.54-1.53-1.54ZM126.5,9.75c-.84,0-1.53.7-1.53,1.54s.69,1.54,1.53,1.54,1.53-.7,1.53-1.54-.69-1.54-1.53-1.54ZM126.5,32.66c-.84,0-1.53.7-1.53,1.54s.69,1.54,1.53,1.54,1.53-.7,1.53-1.54-.69-1.54-1.53-1.54ZM126.5,28.07c-.84,0-1.53.7-1.53,1.54s.69,1.54,1.53,1.54,1.53-.7,1.53-1.54-.69-1.54-1.53-1.54ZM126.5,23.48c-.84,0-1.53.7-1.53,1.54s.69,1.54,1.53,1.54,1.53-.7,1.53-1.54-.69-1.54-1.53-1.54ZM85.52,28.07c-.84,0-1.53.7-1.53,1.54s.69,1.54,1.53,1.54,1.53-.7,1.53-1.54-.69-1.54-1.53-1.54ZM109.08,35.74c.84,0,1.53-.7,1.53-1.54s-.69-1.54-1.53-1.54-1.53.7-1.53,1.54.69,1.54,1.53,1.54ZM113,21.2c-.84,0-1.53.7-1.53,1.54s.69,1.54,1.53,1.54,1.53-.7,1.53-1.54-.69-1.54-1.53-1.54ZM101.23,14.32c-.84,0-1.53.7-1.53,1.54s.69,1.54,1.53,1.54,1.53-.7,1.53-1.54-.69-1.54-1.53-1.54ZM109.08,28.07c-.84,0-1.53.7-1.53,1.54s.69,1.54,1.53,1.54,1.53-.7,1.53-1.54-.69-1.54-1.53-1.54ZM113,32.87c.52,0,.95-.43.95-.96s-.43-.96-.95-.96-.95.43-.95.96.43.96.95.96ZM113,16.61c-.84,0-1.53.7-1.53,1.54s.69,1.54,1.53,1.54,1.53-.7,1.53-1.54-.69-1.54-1.53-1.54ZM89.45,39.52c-.84,0-1.53.7-1.53,1.54s.69,1.54,1.53,1.54,1.53-.7,1.53-1.54-.69-1.54-1.53-1.54ZM89.45,21.2c-.84,0-1.53.7-1.53,1.54s.69,1.54,1.53,1.54,1.53-.7,1.53-1.54-.69-1.54-1.53-1.54ZM101.23,9.75c-.84,0-1.53.7-1.53,1.54s.69,1.54,1.53,1.54,1.53-.7,1.53-1.54-.69-1.54-1.53-1.54ZM89.45,12.02c-.84,0-1.53.7-1.53,1.54s.69,1.54,1.53,1.54,1.53-.7,1.53-1.54-.69-1.54-1.53-1.54ZM89.45,7.45c-.84,0-1.53.7-1.53,1.54s.69,1.54,1.53,1.54,1.53-.7,1.53-1.54-.69-1.54-1.53-1.54ZM89.45,34.93c-.84,0-1.53.7-1.53,1.54s.69,1.54,1.53,1.54,1.53-.7,1.53-1.54-.69-1.54-1.53-1.54ZM89.45,30.36c-.84,0-1.53.7-1.53,1.54s.69,1.54,1.53,1.54,1.53-.7,1.53-1.54-.69-1.54-1.53-1.54ZM89.45,25.77c-.84,0-1.53.7-1.53,1.54s.69,1.54,1.53,1.54,1.53-.7,1.53-1.54-.69-1.54-1.53-1.54ZM85.52,37.23c-.84,0-1.53.7-1.53,1.54s.69,1.54,1.53,1.54,1.53-.7,1.53-1.54-.69-1.54-1.53-1.54ZM85.52,41.82c-.84,0-1.53.7-1.53,1.54s.69,1.54,1.53,1.54,1.53-.7,1.53-1.54-.69-1.54-1.53-1.54ZM89.45,55.78c.52,0,.95-.43.95-.96s-.43-.96-.95-.96-.95.43-.95.96.43.96.95.96ZM85.52,32.66c-.84,0-1.53.7-1.53,1.54s.69,1.54,1.53,1.54,1.53-.7,1.53-1.54-.69-1.54-1.53-1.54ZM126.5,37.23c-.84,0-1.53.7-1.53,1.54s.69,1.54,1.53,1.54,1.53-.7,1.53-1.54-.69-1.54-1.53-1.54ZM85.52,46.39c-.84,0-1.53.7-1.53,1.54s.69,1.54,1.53,1.54,1.53-.7,1.53-1.54-.69-1.54-1.53-1.54ZM85.52,54.06c.84,0,1.53-.7,1.53-1.54s-.69-1.54-1.53-1.54-1.53.7-1.53,1.54.69,1.54,1.53,1.54ZM89.45,16.61c-.84,0-1.53.7-1.53,1.54s.69,1.54,1.53,1.54,1.53-.7,1.53-1.54-.69-1.54-1.53-1.54ZM97.3,12.02c-.84,0-1.53.7-1.53,1.54s.69,1.54,1.53,1.54,1.53-.7,1.53-1.54-.69-1.54-1.53-1.54ZM97.3,16.61c-.84,0-1.53.7-1.53,1.54s.69,1.54,1.53,1.54,1.53-.7,1.53-1.54-.69-1.54-1.53-1.54ZM97.3,7.45c-.84,0-1.53.7-1.53,1.54s.69,1.54,1.53,1.54,1.53-.7,1.53-1.54-.69-1.54-1.53-1.54ZM93.37,40.33c.84,0,1.53-.7,1.53-1.54s-.69-1.54-1.53-1.54-1.53.7-1.53,1.54.69,1.54,1.53,1.54ZM89.45,44.11c-.84,0-1.53.7-1.53,1.54s.69,1.54,1.53,1.54,1.53-.7,1.53-1.54-.69-1.54-1.53-1.54ZM97.3,30.36c-.84,0-1.53.7-1.53,1.54s.69,1.54,1.53,1.54,1.53-.7,1.53-1.54-.69-1.54-1.53-1.54ZM97.3,38.04c.84,0,1.53-.7,1.53-1.54s-.69-1.54-1.53-1.54-1.53.7-1.53,1.54.69,1.54,1.53,1.54ZM93.37,14.32c-.84,0-1.53.7-1.53,1.54s.69,1.54,1.53,1.54,1.53-.7,1.53-1.54-.69-1.54-1.53-1.54ZM93.37,9.75c-.84,0-1.53.7-1.53,1.54s.69,1.54,1.53,1.54,1.53-.7,1.53-1.54-.69-1.54-1.53-1.54ZM89.45,48.68c-.84,0-1.53.7-1.53,1.54s.69,1.54,1.53,1.54,1.53-.7,1.53-1.54-.69-1.54-1.53-1.54ZM93.37,32.66c-.84,0-1.53.7-1.53,1.54s.69,1.54,1.53,1.54,1.53-.7,1.53-1.54-.69-1.54-1.53-1.54ZM109.08,18.91c-.84,0-1.53.7-1.53,1.54s.69,1.54,1.53,1.54,1.53-.7,1.53-1.54-.69-1.54-1.53-1.54ZM146.13,12.02c-.84,0-1.53.7-1.53,1.54s.69,1.54,1.53,1.54,1.53-.7,1.53-1.54-.69-1.54-1.53-1.54ZM146.13,16.61c-.84,0-1.53.7-1.53,1.54s.69,1.54,1.53,1.54,1.53-.7,1.53-1.54-.69-1.54-1.53-1.54ZM146.13,34.93c-.84,0-1.53.7-1.53,1.54s.69,1.54,1.53,1.54,1.53-.7,1.53-1.54-.69-1.54-1.53-1.54ZM146.13,30.36c-.84,0-1.53.7-1.53,1.54s.69,1.54,1.53,1.54,1.53-.7,1.53-1.54-.69-1.54-1.53-1.54ZM150.05,9.75c-.84,0-1.53.7-1.53,1.54s.69,1.54,1.53,1.54,1.53-.7,1.53-1.54-.69-1.54-1.53-1.54ZM150.05,18.91c-.84,0-1.53.7-1.53,1.54s.69,1.54,1.53,1.54,1.53-.7,1.53-1.54-.69-1.54-1.53-1.54ZM150.05,23.48c-.84,0-1.53.7-1.53,1.54s.69,1.54,1.53,1.54,1.53-.7,1.53-1.54-.69-1.54-1.53-1.54ZM150.05,14.32c-.84,0-1.53.7-1.53,1.54s.69,1.54,1.53,1.54,1.53-.7,1.53-1.54-.69-1.54-1.53-1.54ZM142.2,14.32c-.84,0-1.53.7-1.53,1.54s.69,1.54,1.53,1.54,1.53-.7,1.53-1.54-.69-1.54-1.53-1.54ZM146.13,8.03c-.52,0-.95.43-.95.96s.43.96.95.96.95-.43.95-.96-.43-.96-.95-.96ZM142.2,19.49c-.52,0-.95.43-.95.96s.43.96.95.96.95-.43.95-.96-.43-.96-.95-.96ZM142.2,28.65c-.52,0-.95.43-.95.96s.43.96.95.96.95-.43.95-.96-.43-.96-.95-.96ZM146.13,40.11c-.52,0-.95.43-.95.96s.43.96.95.96.95-.43.95-.96-.43-.96-.95-.96ZM142.2,9.75c-.84,0-1.53.7-1.53,1.54s.69,1.54,1.53,1.54,1.53-.7,1.53-1.54-.69-1.54-1.53-1.54ZM142.2,32.66c-.84,0-1.53.7-1.53,1.54s.69,1.54,1.53,1.54,1.53-.7,1.53-1.54-.69-1.54-1.53-1.54ZM142.2,40.33c.84,0,1.53-.7,1.53-1.54s-.69-1.54-1.53-1.54-1.53.7-1.53,1.54.69,1.54,1.53,1.54ZM138.27,42.03c.52,0,.95-.43.95-.96s-.43-.96-.95-.96-.95.43-.95.96.43.96.95.96ZM157.9,14.9c-.52,0-.95.43-.95.96s.43.96.95.96.95-.43.95-.96-.43-.96-.95-.96ZM153.98,37.45c.52,0,.95-.43.95-.96s-.43-.96-.95-.96-.95.43-.95.96.43.96.95.96ZM150.05,39.73c.52,0,.95-.43.95-.96s-.43-.96-.95-.96-.95.43-.95.96.43.96.95.96ZM157.9,21.99c.84,0,1.53-.7,1.53-1.54s-.69-1.54-1.53-1.54-1.53.7-1.53,1.54.69,1.54,1.53,1.54ZM157.9,28.07c-.84,0-1.53.7-1.53,1.54s.69,1.54,1.53,1.54,1.53-.7,1.53-1.54-.69-1.54-1.53-1.54ZM157.9,23.48c-.84,0-1.53.7-1.53,1.54s.69,1.54,1.53,1.54,1.53-.7,1.53-1.54-.69-1.54-1.53-1.54ZM153.98,30.36c-.84,0-1.53.7-1.53,1.54s.69,1.54,1.53,1.54,1.52-.7,1.52-1.54-.69-1.54-1.52-1.54ZM153.98,25.77c-.84,0-1.53.7-1.53,1.54s.69,1.54,1.53,1.54,1.52-.7,1.52-1.54-.69-1.54-1.52-1.54ZM150.05,32.66c-.84,0-1.53.7-1.53,1.54s.69,1.54,1.53,1.54,1.53-.7,1.53-1.54-.69-1.54-1.53-1.54ZM153.98,12.02c-.84,0-1.53.7-1.53,1.54s.69,1.54,1.53,1.54,1.52-.7,1.52-1.54-.69-1.54-1.52-1.54ZM153.98,21.2c-.84,0-1.53.7-1.53,1.54s.69,1.54,1.53,1.54,1.52-.7,1.52-1.54-.69-1.54-1.52-1.54ZM150.05,28.07c-.84,0-1.53.7-1.53,1.54s.69,1.54,1.53,1.54,1.53-.7,1.53-1.54-.69-1.54-1.53-1.54ZM153.98,16.61c-.84,0-1.53.7-1.53,1.54s.69,1.54,1.53,1.54,1.52-.7,1.52-1.54-.69-1.54-1.52-1.54ZM130.42,30.36c-.84,0-1.53.7-1.53,1.54s.69,1.54,1.53,1.54,1.53-.7,1.53-1.54-.69-1.54-1.53-1.54ZM126.5,41.82c-.84,0-1.53.7-1.53,1.54s.69,1.54,1.53,1.54,1.53-.7,1.53-1.54-.69-1.54-1.53-1.54ZM130.42,34.93c-.84,0-1.53.7-1.53,1.54s.69,1.54,1.53,1.54,1.53-.7,1.53-1.54-.69-1.54-1.53-1.54ZM138.27,34.93c-.84,0-1.53.7-1.53,1.54s.69,1.54,1.53,1.54,1.53-.7,1.53-1.54-.69-1.54-1.53-1.54ZM130.42,48.68c-.84,0-1.53.7-1.53,1.54s.69,1.54,1.53,1.54,1.53-.7,1.53-1.54-.69-1.54-1.53-1.54ZM130.42,39.52c-.84,0-1.53.7-1.53,1.54s.69,1.54,1.53,1.54,1.53-.7,1.53-1.54-.69-1.54-1.53-1.54ZM130.42,21.2c-.84,0-1.53.7-1.53,1.54s.69,1.54,1.53,1.54,1.53-.7,1.53-1.54-.69-1.54-1.53-1.54ZM130.42,44.11c-.84,0-1.53.7-1.53,1.54s.69,1.54,1.53,1.54,1.53-.7,1.53-1.54-.69-1.54-1.53-1.54ZM130.42,12.02c-.84,0-1.53.7-1.53,1.54s.69,1.54,1.53,1.54,1.53-.7,1.53-1.54-.69-1.54-1.53-1.54ZM130.42,55.78c.52,0,.95-.43.95-.96s-.43-.96-.95-.96-.95.43-.95.96.43.96.95.96ZM126.5,54.06c.84,0,1.53-.7,1.53-1.54s-.69-1.54-1.53-1.54-1.53.7-1.53,1.54.69,1.54,1.53,1.54ZM126.5,46.39c-.84,0-1.53.7-1.53,1.54s.69,1.54,1.53,1.54,1.53-.7,1.53-1.54-.69-1.54-1.53-1.54ZM130.42,16.61c-.84,0-1.53.7-1.53,1.54s.69,1.54,1.53,1.54,1.53-.7,1.53-1.54-.69-1.54-1.53-1.54ZM130.42,7.45c-.84,0-1.53.7-1.53,1.54s.69,1.54,1.53,1.54,1.53-.7,1.53-1.54-.69-1.54-1.53-1.54ZM134.35,9.75c-.84,0-1.52.7-1.52,1.54s.69,1.54,1.52,1.54,1.53-.7,1.53-1.54-.69-1.54-1.53-1.54ZM130.42,25.77c-.84,0-1.53.7-1.53,1.54s.69,1.54,1.53,1.54,1.53-.7,1.53-1.54-.69-1.54-1.53-1.54ZM138.27,7.45c-.84,0-1.53.7-1.53,1.54s.69,1.54,1.53,1.54,1.53-.7,1.53-1.54-.69-1.54-1.53-1.54ZM138.27,12.02c-.84,0-1.53.7-1.53,1.54s.69,1.54,1.53,1.54,1.53-.7,1.53-1.54-.69-1.54-1.53-1.54ZM134.35,54.06c.84,0,1.53-.7,1.53-1.54s-.69-1.54-1.53-1.54-1.52.7-1.52,1.54.69,1.54,1.52,1.54ZM138.27,30.36c-.84,0-1.53.7-1.53,1.54s.69,1.54,1.53,1.54,1.53-.7,1.53-1.54-.69-1.54-1.53-1.54ZM134.35,46.39c-.84,0-1.52.7-1.52,1.54s.69,1.54,1.52,1.54,1.53-.7,1.53-1.54-.69-1.54-1.53-1.54ZM138.27,16.61c-.84,0-1.53.7-1.53,1.54s.69,1.54,1.53,1.54,1.53-.7,1.53-1.54-.69-1.54-1.53-1.54ZM134.35,32.66c-.84,0-1.52.7-1.52,1.54s.69,1.54,1.52,1.54,1.53-.7,1.53-1.54-.69-1.54-1.53-1.54ZM134.35,28.07c-.84,0-1.52.7-1.52,1.54s.69,1.54,1.52,1.54,1.53-.7,1.53-1.54-.69-1.54-1.53-1.54ZM134.35,23.48c-.84,0-1.52.7-1.52,1.54s.69,1.54,1.52,1.54,1.53-.7,1.53-1.54-.69-1.54-1.53-1.54ZM134.35,18.91c-.84,0-1.52.7-1.52,1.54s.69,1.54,1.52,1.54,1.53-.7,1.53-1.54-.69-1.54-1.53-1.54ZM134.35,14.32c-.84,0-1.52.7-1.52,1.54s.69,1.54,1.52,1.54,1.53-.7,1.53-1.54-.69-1.54-1.53-1.54ZM134.35,37.23c-.84,0-1.52.7-1.52,1.54s.69,1.54,1.52,1.54,1.53-.7,1.53-1.54-.69-1.54-1.53-1.54ZM134.35,41.82c-.84,0-1.52.7-1.52,1.54s.69,1.54,1.52,1.54,1.53-.7,1.53-1.54-.69-1.54-1.53-1.54ZM71.51,10.33c-.52,0-.95.43-.95.96s.43.96.95.96.95-.43.95-.96-.43-.96-.95-.96ZM28.36,34.93c-.84,0-1.53.7-1.53,1.54s.69,1.54,1.53,1.54,1.53-.7,1.53-1.54-.69-1.54-1.53-1.54ZM28.36,30.36c-.84,0-1.53.7-1.53,1.54s.69,1.54,1.53,1.54,1.53-.7,1.53-1.54-.69-1.54-1.53-1.54ZM28.36,21.79c-.52,0-.95.43-.95.96s.43.96.95.96.95-.43.95-.96-.43-.96-.95-.96ZM28.36,25.77c-.84,0-1.53.7-1.53,1.54s.69,1.54,1.53,1.54,1.53-.7,1.53-1.54-.69-1.54-1.53-1.54ZM32.28,39.73c.52,0,.95-.43.95-.96s-.43-.96-.95-.96-.95.43-.95.96.43.96.95.96ZM28.36,39.52c-.84,0-1.53.7-1.53,1.54s.69,1.54,1.53,1.54,1.53-.7,1.53-1.54-.69-1.54-1.53-1.54ZM28.36,47.2c.84,0,1.53-.7,1.53-1.54s-.69-1.54-1.53-1.54-1.53.7-1.53,1.54.69,1.54,1.53,1.54ZM24.43,54.06c.84,0,1.53-.7,1.53-1.54s-.69-1.54-1.53-1.54-1.53.7-1.53,1.54.69,1.54,1.53,1.54ZM24.43,37.23c-.84,0-1.53.7-1.53,1.54s.69,1.54,1.53,1.54,1.53-.7,1.53-1.54-.69-1.54-1.53-1.54ZM20.51,44.11c-.84,0-1.53.7-1.53,1.54s.69,1.54,1.53,1.54,1.53-.7,1.53-1.54-.69-1.54-1.53-1.54ZM20.51,48.68c-.84,0-1.53.7-1.53,1.54s.69,1.54,1.53,1.54,1.53-.7,1.53-1.54-.69-1.54-1.53-1.54ZM24.43,32.66c-.84,0-1.53.7-1.53,1.54s.69,1.54,1.53,1.54,1.53-.7,1.53-1.54-.69-1.54-1.53-1.54ZM24.43,46.39c-.84,0-1.53.7-1.53,1.54s.69,1.54,1.53,1.54,1.53-.7,1.53-1.54-.69-1.54-1.53-1.54ZM24.43,41.82c-.84,0-1.53.7-1.53,1.54s.69,1.54,1.53,1.54,1.53-.7,1.53-1.54-.69-1.54-1.53-1.54ZM36.21,33.45c.84,0,1.53-.7,1.53-1.54s-.69-1.54-1.53-1.54-1.53.7-1.53,1.54.69,1.54,1.53,1.54ZM36.21,25.77c-.84,0-1.53.7-1.53,1.54s.69,1.54,1.53,1.54,1.53-.7,1.53-1.54-.69-1.54-1.53-1.54ZM36.21,21.2c-.84,0-1.53.7-1.53,1.54s.69,1.54,1.53,1.54,1.53-.7,1.53-1.54-.69-1.54-1.53-1.54ZM36.21,16.61c-.84,0-1.53.7-1.53,1.54s.69,1.54,1.53,1.54,1.53-.7,1.53-1.54-.69-1.54-1.53-1.54ZM40.14,39.73c.52,0,.95-.43.95-.96s-.43-.96-.95-.96-.95.43-.95.96.43.96.95.96ZM40.14,14.32c-.84,0-1.53.7-1.53,1.54s.69,1.54,1.53,1.54,1.53-.7,1.53-1.54-.69-1.54-1.53-1.54ZM32.28,14.32c-.84,0-1.53.7-1.53,1.54s.69,1.54,1.53,1.54,1.53-.7,1.53-1.54-.69-1.54-1.53-1.54ZM36.21,12.02c-.84,0-1.53.7-1.53,1.54s.69,1.54,1.53,1.54,1.53-.7,1.53-1.54-.69-1.54-1.53-1.54ZM32.28,18.91c-.84,0-1.53.7-1.53,1.54s.69,1.54,1.53,1.54,1.53-.7,1.53-1.54-.69-1.54-1.53-1.54ZM32.28,28.07c-.84,0-1.53.7-1.53,1.54s.69,1.54,1.53,1.54,1.53-.7,1.53-1.54-.69-1.54-1.53-1.54ZM32.28,23.48c-.84,0-1.53.7-1.53,1.54s.69,1.54,1.53,1.54,1.53-.7,1.53-1.54-.69-1.54-1.53-1.54ZM32.28,32.66c-.84,0-1.53.7-1.53,1.54s.69,1.54,1.53,1.54,1.53-.7,1.53-1.54-.69-1.54-1.53-1.54ZM36.21,8.03c-.52,0-.95.43-.95.96s.43.96.95.96.95-.43.95-.96-.43-.96-.95-.96ZM32.28,10.33c-.52,0-.95.43-.95.96s.43.96.95.96.95-.43.95-.96-.43-.96-.95-.96ZM40.14,10.33c-.52,0-.95.43-.95.96s.43.96.95.96.95-.43.95-.96-.43-.96-.95-.96ZM8.8,17.4c.84,0,1.53-.7,1.53-1.54s-.69-1.54-1.53-1.54-1.53.7-1.53,1.54.69,1.54,1.53,1.54ZM12.65,12.02c-.84,0-1.53.7-1.53,1.54s.69,1.54,1.53,1.54,1.53-.7,1.53-1.54-.69-1.54-1.53-1.54ZM12.65,16.61c-.84,0-1.53.7-1.53,1.54s.69,1.54,1.53,1.54,1.53-.7,1.53-1.54-.69-1.54-1.53-1.54ZM12.65,25.77c-.84,0-1.53.7-1.53,1.54s.69,1.54,1.53,1.54,1.53-.7,1.53-1.54-.69-1.54-1.53-1.54ZM12.65,21.2c-.84,0-1.53.7-1.53,1.54s.69,1.54,1.53,1.54,1.53-.7,1.53-1.54-.69-1.54-1.53-1.54ZM8.8,26.58c.84,0,1.53-.7,1.53-1.54s-.69-1.54-1.53-1.54-1.53.7-1.53,1.54.69,1.54,1.53,1.54ZM40.14,18.91c-.84,0-1.53.7-1.53,1.54s.69,1.54,1.53,1.54,1.53-.7,1.53-1.54-.69-1.54-1.53-1.54ZM8.8,21.99c.84,0,1.53-.7,1.53-1.54s-.69-1.54-1.53-1.54-1.53.7-1.53,1.54.69,1.54,1.53,1.54ZM12.65,7.45c-.84,0-1.53.7-1.53,1.54s.69,1.54,1.53,1.54,1.53-.7,1.53-1.54-.69-1.54-1.53-1.54ZM4.88,12.02c-.84,0-1.53.7-1.53,1.54s.69,1.54,1.53,1.54,1.53-.7,1.53-1.54-.69-1.54-1.53-1.54ZM4.88,7.45c-.84,0-1.53.7-1.53,1.54s.69,1.54,1.53,1.54,1.53-.7,1.53-1.54-.69-1.54-1.53-1.54ZM.95,10.33c-.52,0-.95.43-.95.96s.43.96.95.96.95-.43.95-.96-.43-.96-.95-.96ZM4.88,16.61c-.84,0-1.53.7-1.53,1.54s.69,1.54,1.53,1.54,1.53-.7,1.53-1.54-.69-1.54-1.53-1.54ZM8.8,9.75c-.84,0-1.53.7-1.53,1.54s.69,1.54,1.53,1.54,1.53-.7,1.53-1.54-.69-1.54-1.53-1.54ZM12.65,37.45c.52,0,.95-.43.95-.96s-.43-.96-.95-.96-.95.43-.95.96.43.96.95.96ZM16.58,14.9c-.52,0-.95.43-.95.96s.43.96.95.96.95-.43.95-.96-.43-.96-.95-.96ZM20.51,55.78c.52,0,.95-.43.95-.96s-.43-.96-.95-.96-.95.43-.95.96.43.96.95.96ZM20.51,26.36c-.52,0-.95.43-.95.96s.43.96.95.96.95-.43.95-.96-.43-.96-.95-.96ZM20.51,21.79c-.52,0-.95.43-.95.96s.43.96.95.96.95-.43.95-.96-.43-.96-.95-.96ZM51.92,21.79c-.52,0-.95.43-.95.96s.43.96.95.96.95-.43.95-.96-.43-.96-.95-.96ZM24.43,28.65c-.52,0-.95.43-.95.96s.43.96.95.96.95-.43.95-.96-.43-.96-.95-.96ZM47.99,28.65c-.52,0-.95.43-.95.96s.43.96.95.96.95-.43.95-.96-.43-.96-.95-.96ZM16.58,37.23c-.84,0-1.53.7-1.53,1.54s.69,1.54,1.53,1.54,1.53-.7,1.53-1.54-.69-1.54-1.53-1.54ZM16.58,41.82c-.84,0-1.53.7-1.53,1.54s.69,1.54,1.53,1.54,1.53-.7,1.53-1.54-.69-1.54-1.53-1.54ZM12.65,30.36c-.84,0-1.53.7-1.53,1.54s.69,1.54,1.53,1.54,1.53-.7,1.53-1.54-.69-1.54-1.53-1.54ZM20.51,30.36c-.84,0-1.53.7-1.53,1.54s.69,1.54,1.53,1.54,1.53-.7,1.53-1.54-.69-1.54-1.53-1.54ZM20.51,34.93c-.84,0-1.53.7-1.53,1.54s.69,1.54,1.53,1.54,1.53-.7,1.53-1.54-.69-1.54-1.53-1.54ZM20.51,39.52c-.84,0-1.53.7-1.53,1.54s.69,1.54,1.53,1.54,1.53-.7,1.53-1.54-.69-1.54-1.53-1.54ZM16.58,18.91c-.84,0-1.53.7-1.53,1.54s.69,1.54,1.53,1.54,1.53-.7,1.53-1.54-.69-1.54-1.53-1.54ZM16.58,32.66c-.84,0-1.53.7-1.53,1.54s.69,1.54,1.53,1.54,1.53-.7,1.53-1.54-.69-1.54-1.53-1.54ZM16.58,48.91c.52,0,.95-.43.95-.96s-.43-.96-.95-.96-.95.43-.95.96.43.96.95.96ZM16.58,28.07c-.84,0-1.53.7-1.53,1.54s.69,1.54,1.53,1.54,1.53-.7,1.53-1.54-.69-1.54-1.53-1.54ZM16.58,23.48c-.84,0-1.53.7-1.53,1.54s.69,1.54,1.53,1.54,1.53-.7,1.53-1.54-.69-1.54-1.53-1.54ZM55.84,48.91c.52,0,.95-.43.95-.96s-.43-.96-.95-.96-.95.43-.95.96.43.96.95.96ZM63.69,18.91c-.84,0-1.53.7-1.53,1.54s.69,1.54,1.53,1.54,1.53-.7,1.53-1.54-.69-1.54-1.53-1.54ZM63.69,14.32c-.84,0-1.53.7-1.53,1.54s.69,1.54,1.53,1.54,1.53-.7,1.53-1.54-.69-1.54-1.53-1.54ZM63.69,26.58c.84,0,1.53-.7,1.53-1.54s-.69-1.54-1.53-1.54-1.53.7-1.53,1.54.69,1.54,1.53,1.54ZM67.62,19.7c.84,0,1.53-.7,1.53-1.54s-.69-1.54-1.53-1.54-1.53.7-1.53,1.54.69,1.54,1.53,1.54ZM63.69,9.75c-.84,0-1.53.7-1.53,1.54s.69,1.54,1.53,1.54,1.53-.7,1.53-1.54-.69-1.54-1.53-1.54ZM67.62,12.02c-.84,0-1.53.7-1.53,1.54s.69,1.54,1.53,1.54,1.53-.7,1.53-1.54-.69-1.54-1.53-1.54ZM67.62,7.45c-.84,0-1.53.7-1.53,1.54s.69,1.54,1.53,1.54,1.53-.7,1.53-1.54-.69-1.54-1.53-1.54ZM59.77,25.77c-.84,0-1.53.7-1.53,1.54s.69,1.54,1.53,1.54,1.53-.7,1.53-1.54-.69-1.54-1.53-1.54ZM59.77,16.61c-.84,0-1.53.7-1.53,1.54s.69,1.54,1.53,1.54,1.53-.7,1.53-1.54-.69-1.54-1.53-1.54ZM59.77,12.02c-.84,0-1.53.7-1.53,1.54s.69,1.54,1.53,1.54,1.53-.7,1.53-1.54-.69-1.54-1.53-1.54ZM59.77,7.45c-.84,0-1.53.7-1.53,1.54s.69,1.54,1.53,1.54,1.53-.7,1.53-1.54-.69-1.54-1.53-1.54ZM81.59,55.78c.52,0,.95-.43.95-.96s-.43-.96-.95-.96-.95.43-.95.96.43.96.95.96ZM59.77,37.45c.52,0,.95-.43.95-.96s-.43-.96-.95-.96-.95.43-.95.96.43.96.95.96ZM59.77,30.36c-.84,0-1.53.7-1.53,1.54s.69,1.54,1.53,1.54,1.53-.7,1.53-1.54-.69-1.54-1.53-1.54ZM59.77,21.2c-.84,0-1.53.7-1.53,1.54s.69,1.54,1.53,1.54,1.53-.7,1.53-1.54-.69-1.54-1.53-1.54ZM81.59,39.52c-.84,0-1.53.7-1.53,1.54s.69,1.54,1.53,1.54,1.53-.7,1.53-1.54-.69-1.54-1.53-1.54ZM81.59,48.68c-.84,0-1.53.7-1.53,1.54s.69,1.54,1.53,1.54,1.53-.7,1.53-1.54-.69-1.54-1.53-1.54ZM81.59,44.11c-.84,0-1.53.7-1.53,1.54s.69,1.54,1.53,1.54,1.53-.7,1.53-1.54-.69-1.54-1.53-1.54ZM85.52,9.75c-.84,0-1.53.7-1.53,1.54s.69,1.54,1.53,1.54,1.53-.7,1.53-1.54-.69-1.54-1.53-1.54ZM85.52,14.32c-.84,0-1.53.7-1.53,1.54s.69,1.54,1.53,1.54,1.53-.7,1.53-1.54-.69-1.54-1.53-1.54ZM85.52,18.91c-.84,0-1.53.7-1.53,1.54s.69,1.54,1.53,1.54,1.53-.7,1.53-1.54-.69-1.54-1.53-1.54ZM81.59,25.77c-.84,0-1.53.7-1.53,1.54s.69,1.54,1.53,1.54,1.53-.7,1.53-1.54-.69-1.54-1.53-1.54ZM81.59,34.93c-.84,0-1.53.7-1.53,1.54s.69,1.54,1.53,1.54,1.53-.7,1.53-1.54-.69-1.54-1.53-1.54ZM81.59,21.2c-.84,0-1.53.7-1.53,1.54s.69,1.54,1.53,1.54,1.53-.7,1.53-1.54-.69-1.54-1.53-1.54ZM81.59,12.02c-.84,0-1.53.7-1.53,1.54s.69,1.54,1.53,1.54,1.53-.7,1.53-1.54-.69-1.54-1.53-1.54ZM81.59,16.61c-.84,0-1.53.7-1.53,1.54s.69,1.54,1.53,1.54,1.53-.7,1.53-1.54-.69-1.54-1.53-1.54ZM81.59,7.45c-.84,0-1.53.7-1.53,1.54s.69,1.54,1.53,1.54,1.53-.7,1.53-1.54-.69-1.54-1.53-1.54ZM81.59,30.36c-.84,0-1.53.7-1.53,1.54s.69,1.54,1.53,1.54,1.53-.7,1.53-1.54-.69-1.54-1.53-1.54ZM40.14,23.48c-.84,0-1.53.7-1.53,1.54s.69,1.54,1.53,1.54,1.53-.7,1.53-1.54-.69-1.54-1.53-1.54ZM47.99,32.66c-.84,0-1.53.7-1.53,1.54s.69,1.54,1.53,1.54,1.53-.7,1.53-1.54-.69-1.54-1.53-1.54ZM44.06,39.52c-.84,0-1.53.7-1.53,1.54s.69,1.54,1.53,1.54,1.53-.7,1.53-1.54-.69-1.54-1.53-1.54ZM51.92,55.78c.52,0,.95-.43.95-.96s-.43-.96-.95-.96-.95.43-.95.96.43.96.95.96ZM47.99,37.23c-.84,0-1.53.7-1.53,1.54s.69,1.54,1.53,1.54,1.53-.7,1.53-1.54-.69-1.54-1.53-1.54ZM47.99,54.06c.84,0,1.53-.7,1.53-1.54s-.69-1.54-1.53-1.54-1.53.7-1.53,1.54.69,1.54,1.53,1.54ZM47.99,41.82c-.84,0-1.53.7-1.53,1.54s.69,1.54,1.53,1.54,1.53-.7,1.53-1.54-.69-1.54-1.53-1.54ZM47.99,46.39c-.84,0-1.53.7-1.53,1.54s.69,1.54,1.53,1.54,1.53-.7,1.53-1.54-.69-1.54-1.53-1.54ZM44.06,47.2c.84,0,1.53-.7,1.53-1.54s-.69-1.54-1.53-1.54-1.53.7-1.53,1.54.69,1.54,1.53,1.54ZM44.06,21.79c-.52,0-.95.43-.95.96s.43.96.95.96.95-.43.95-.96-.43-.96-.95-.96ZM40.14,32.66c-.84,0-1.53.7-1.53,1.54s.69,1.54,1.53,1.54,1.53-.7,1.53-1.54-.69-1.54-1.53-1.54ZM40.14,28.07c-.84,0-1.53.7-1.53,1.54s.69,1.54,1.53,1.54,1.53-.7,1.53-1.54-.69-1.54-1.53-1.54ZM44.06,34.93c-.84,0-1.53.7-1.53,1.54s.69,1.54,1.53,1.54,1.53-.7,1.53-1.54-.69-1.54-1.53-1.54ZM44.06,25.77c-.84,0-1.53.7-1.53,1.54s.69,1.54,1.53,1.54,1.53-.7,1.53-1.54-.69-1.54-1.53-1.54ZM44.06,30.36c-.84,0-1.53.7-1.53,1.54s.69,1.54,1.53,1.54,1.53-.7,1.53-1.54-.69-1.54-1.53-1.54ZM55.84,28.07c-.84,0-1.53.7-1.53,1.54s.69,1.54,1.53,1.54,1.53-.7,1.53-1.54-.69-1.54-1.53-1.54ZM55.84,23.48c-.84,0-1.53.7-1.53,1.54s.69,1.54,1.53,1.54,1.53-.7,1.53-1.54-.69-1.54-1.53-1.54ZM55.84,41.82c-.84,0-1.53.7-1.53,1.54s.69,1.54,1.53,1.54,1.53-.7,1.53-1.54-.69-1.54-1.53-1.54ZM51.92,26.36c-.52,0-.95.43-.95.96s.43.96.95.96.95-.43.95-.96-.43-.96-.95-.96ZM55.84,37.23c-.84,0-1.53.7-1.53,1.54s.69,1.54,1.53,1.54,1.53-.7,1.53-1.54-.69-1.54-1.53-1.54ZM55.84,32.66c-.84,0-1.53.7-1.53,1.54s.69,1.54,1.53,1.54,1.53-.7,1.53-1.54-.69-1.54-1.53-1.54ZM55.84,14.9c-.52,0-.95.43-.95.96s.43.96.95.96.95-.43.95-.96-.43-.96-.95-.96ZM55.84,18.91c-.84,0-1.53.7-1.53,1.54s.69,1.54,1.53,1.54,1.53-.7,1.53-1.54-.69-1.54-1.53-1.54ZM51.92,34.93c-.84,0-1.53.7-1.53,1.54s.69,1.54,1.53,1.54,1.53-.7,1.53-1.54-.69-1.54-1.53-1.54ZM51.92,30.36c-.84,0-1.53.7-1.53,1.54s.69,1.54,1.53,1.54,1.53-.7,1.53-1.54-.69-1.54-1.53-1.54ZM51.92,39.52c-.84,0-1.53.7-1.53,1.54s.69,1.54,1.53,1.54,1.53-.7,1.53-1.54-.69-1.54-1.53-1.54ZM85.52,23.48c-.84,0-1.53.7-1.53,1.54s.69,1.54,1.53,1.54,1.53-.7,1.53-1.54-.69-1.54-1.53-1.54ZM51.92,44.11c-.84,0-1.53.7-1.53,1.54s.69,1.54,1.53,1.54,1.53-.7,1.53-1.54-.69-1.54-1.53-1.54ZM51.92,48.68c-.84,0-1.53.7-1.53,1.54s.69,1.54,1.53,1.54,1.53-.7,1.53-1.54-.69-1.54-1.53-1.54ZM176.66,7.45h32.17v8.94h-22.38v9.82h16.45v8.43h-16.45v12.23h23.26v8.94h-33.03V7.47l-.02-.02ZM243.96,22.65c2.42,2.67,3.63,6.21,3.63,10.61v22.54h-9.71v-21.16c0-2.11-.61-3.8-1.84-5.1-1.23-1.3-2.83-1.94-4.82-1.94s-3.61.64-4.89,1.94c-1.28,1.3-1.92,2.99-1.92,5.1v21.16h-9.79V19.55h8.99v3.29c1.25-1.26,2.79-2.28,4.6-3.05,1.8-.77,3.78-1.13,5.9-1.13,4.15,0,7.44,1.34,9.84,4.01l.02-.02ZM277.14,47.42v8.33c-2.33.58-4.56.88-6.74.88-4.54,0-8.06-1.13-10.57-3.4-2.51-2.28-3.76-5.68-3.76-10.21v-15.16h-5.66v-8.35h5.66v-9.16h9.79v9.16h10.14v8.35h-10.14v14.22c0,2.05.54,3.48,1.6,4.35,1.06.85,2.75,1.28,5.08,1.28.58,0,2.12-.09,4.63-.3l-.04.02ZM313.58,40.99h-25.14c.58,2.29,1.75,4.06,3.52,5.3,1.77,1.24,3.94,1.86,6.55,1.86,3.52,0,6.87-1.22,9.99-3.67l4.06,6.73c-4.24,3.61-9.02,5.42-14.35,5.42-3.72,0-7.07-.83-10.07-2.5-3-1.66-5.34-3.95-7.03-6.87-1.69-2.92-2.53-6.13-2.53-9.65s.82-6.73,2.46-9.65c1.64-2.92,3.91-5.19,6.77-6.87,2.87-1.67,6.05-2.5,9.53-2.5,3.27,0,6.2.75,8.76,2.24,2.57,1.49,4.56,3.54,5.97,6.09,1.43,2.58,2.14,5.42,2.14,8.56,0,1.77-.22,3.57-.65,5.44l.02.06ZM291.56,28.63c-1.54,1.34-2.59,3.14-3.11,5.4h16.3c-.06-2.28-.82-4.06-2.33-5.4-1.51-1.34-3.31-1.99-5.43-1.99s-3.89.66-5.43,1.99ZM340.97,19.96v8.71h-2.61c-2.94,0-5.29.79-7.03,2.35-1.73,1.56-2.61,3.88-2.61,6.96v17.79h-9.79V19.53h8.99v4.7c1.21-1.49,2.66-2.65,4.35-3.48,1.69-.83,3.52-1.22,5.51-1.22,1.21,0,2.27.15,3.18.43ZM373.61,21.11c2.62,1.64,4.69,3.89,6.2,6.75,1.49,2.86,2.25,6.09,2.25,9.73s-.74,6.87-2.25,9.76c-1.51,2.9-3.55,5.15-6.2,6.83-2.64,1.66-5.62,2.5-8.95,2.5-2.18,0-4.19-.38-6.01-1.13-1.84-.75-3.4-1.84-4.71-3.25v16.7h-9.79V19.57h8.99v4.53c1.21-1.71,2.81-3.05,4.82-3.99,2.01-.94,4.24-1.43,6.7-1.43,3.33,0,6.31.83,8.95,2.46v-.04ZM369.44,44.96c1.79-1.84,2.68-4.27,2.68-7.26s-.87-5.49-2.64-7.34c-1.77-1.84-3.98-2.77-6.62-2.77-2.46,0-4.6.85-6.38,2.54-1.79,1.69-2.68,4.19-2.68,7.49s.87,5.74,2.64,7.49c1.77,1.75,3.91,2.61,6.42,2.61s4.8-.92,6.59-2.77ZM408.85,19.96v8.71h-2.6c-2.94,0-5.29.79-7.03,2.35-1.73,1.56-2.61,3.88-2.61,6.96v17.79h-9.79V19.53h8.99v4.7c1.21-1.49,2.66-2.65,4.35-3.48,1.69-.83,3.52-1.22,5.51-1.22,1.21,0,2.27.15,3.18.43ZM412.46,10.67c-1.21-1.17-1.8-2.61-1.8-4.33s.59-3.22,1.8-4.38c1.21-1.17,2.68-1.75,4.43-1.75s3.22.58,4.45,1.75c1.23,1.17,1.84,2.63,1.84,4.38s-.61,3.14-1.84,4.33c-1.23,1.17-2.72,1.75-4.45,1.75s-3.22-.58-4.43-1.75ZM412.03,19.53h9.79v36.25h-9.79V19.53ZM431.66,54.8c-2.57-1.24-4.65-2.97-6.31-5.17l4.93-6c3.14,3.27,6.49,4.91,10.07,4.91,1.3,0,2.4-.26,3.26-.77.86-.51,1.3-1.26,1.3-2.24,0-.79-.28-1.37-.84-1.79-.56-.41-1.51-.92-2.86-1.5l-3.83-1.62c-3.29-1.37-5.73-2.9-7.35-4.55-1.62-1.66-2.42-3.84-2.42-6.55,0-3.42,1.23-6.09,3.67-8.01,2.44-1.9,5.62-2.86,9.53-2.86,5.36,0,9.66,1.81,12.89,5.42l-4.93,6.08c-2.42-2.29-5.1-3.44-8.04-3.44-1.21,0-2.16.23-2.83.66-.67.45-1.02,1.09-1.02,1.92,0,.7.28,1.26.84,1.71.56.45,1.53.96,2.94,1.56l3.48,1.49c3.48,1.41,6.03,2.93,7.65,4.57,1.62,1.64,2.42,3.8,2.42,6.49,0,3.61-1.32,6.45-3.95,8.5s-5.97,3.07-10.03,3.07c-3.15,0-5.99-.62-8.54-1.86h-.02ZM491.63,40.99h-25.14c.58,2.29,1.75,4.06,3.52,5.3,1.77,1.24,3.95,1.86,6.55,1.86,3.52,0,6.87-1.22,9.99-3.67l4.06,6.73c-4.24,3.61-9.02,5.42-14.35,5.42-3.72,0-7.07-.83-10.07-2.5-3-1.66-5.34-3.95-7.03-6.87-1.69-2.92-2.53-6.13-2.53-9.65s.82-6.73,2.46-9.65c1.64-2.92,3.91-5.19,6.77-6.87,2.86-1.67,6.05-2.5,9.53-2.5,3.27,0,6.2.75,8.76,2.24,2.57,1.49,4.56,3.54,5.97,6.09,1.43,2.58,2.14,5.42,2.14,8.56,0,1.77-.22,3.57-.65,5.44l.02.06ZM469.62,28.63c-1.55,1.34-2.59,3.14-3.11,5.4h16.3c-.05-2.28-.82-4.06-2.32-5.4-1.51-1.34-3.31-1.99-5.43-1.99s-3.89.66-5.43,1.99ZM511.19,53.55c-3.22-1.94-5.73-4.53-7.57-7.81l6.74-5.12c1.54,2.14,3.24,3.86,5.08,5.12,1.84,1.28,4.06,1.9,6.66,1.9,2.12,0,3.8-.47,5.01-1.43,1.21-.96,1.8-2.26,1.8-3.91,0-1.41-.45-2.5-1.34-3.25s-2.47-1.67-4.74-2.75l-5.14-2.35c-3.67-1.66-6.51-3.59-8.54-5.79-2.03-2.2-3.03-4.91-3.03-8.13,0-2.73.69-5.14,2.07-7.2,1.38-2.07,3.27-3.67,5.69-4.8,2.42-1.13,5.12-1.69,8.11-1.69,3.67,0,6.85.83,9.53,2.48,2.68,1.66,4.76,3.87,6.27,6.66l-6.66,5.19c-2.46-3.71-5.51-5.57-9.14-5.57-1.69,0-3.11.4-4.24,1.2-1.14.81-1.69,1.96-1.69,3.48,0,1.26.43,2.28,1.27,3.05.84.75,2.29,1.6,4.32,2.52l5.43,2.41c4,1.81,6.98,3.8,8.91,5.96,1.93,2.18,2.9,4.89,2.9,8.16,0,2.93-.73,5.49-2.18,7.69-1.45,2.2-3.44,3.88-5.97,5.06-2.53,1.17-5.4,1.75-8.58,1.75-4.06,0-7.68-.96-10.9-2.9l-.06.06ZM551.33,53.91c-2.92-1.69-5.23-3.99-6.92-6.9-1.69-2.92-2.53-6.11-2.53-9.59s.84-6.68,2.53-9.59c1.69-2.92,4-5.21,6.96-6.87,2.94-1.67,6.18-2.5,9.71-2.5s6.75.85,9.71,2.54c2.94,1.69,5.29,3.99,7,6.87,1.71,2.9,2.57,6.08,2.57,9.56s-.86,6.68-2.57,9.59c-1.71,2.92-4.06,5.21-7.03,6.9-2.98,1.69-6.22,2.54-9.75,2.54s-6.75-.85-9.68-2.54ZM567.7,44.54c1.77-1.88,2.64-4.25,2.64-7.11s-.87-5.25-2.64-7.19c-1.77-1.92-3.98-2.9-6.62-2.9s-4.93.96-6.66,2.86c-1.73,1.9-2.6,4.31-2.6,7.22s.88,5.23,2.6,7.11c1.73,1.88,3.96,2.82,6.66,2.82s4.86-.94,6.62-2.82ZM585.04.64h9.79v54.93h-9.79V.64ZM609.35,54.36c-2.53-1.39-4.52-3.35-5.94-5.89-1.43-2.54-2.14-5.49-2.14-8.86v-20.28h9.77v21.09c0,2.11.63,3.78,1.92,5.06,1.28,1.26,2.9,1.9,4.89,1.9s3.46-.64,4.74-1.9c1.28-1.26,1.92-2.95,1.92-5.06v-21.09h9.79v20.28c0,3.37-.71,6.32-2.14,8.86-1.43,2.54-3.39,4.5-5.9,5.89-2.51,1.39-5.32,2.09-8.41,2.09s-5.97-.7-8.5-2.09ZM663.79,47.21v8.33c-2.33.58-4.56.88-6.74.88-4.54,0-8.06-1.13-10.57-3.4-2.51-2.28-3.76-5.68-3.76-10.21v-15.16h-5.66v-8.35h5.66v-9.16h9.79v9.16h10.14v8.35h-10.14v14.22c0,2.05.54,3.48,1.6,4.35,1.06.85,2.75,1.28,5.08,1.28.58,0,2.12-.09,4.63-.3l-.04.02ZM669.08,10.46c-1.21-1.17-1.8-2.61-1.8-4.33s.59-3.22,1.8-4.38c1.21-1.17,2.68-1.75,4.43-1.75s3.22.58,4.45,1.75c1.23,1.17,1.84,2.63,1.84,4.38s-.61,3.14-1.84,4.33c-1.23,1.17-2.72,1.75-4.45,1.75s-3.22-.58-4.43-1.75ZM668.65,19.32h9.79v36.25h-9.79V19.32ZM692.8,53.91c-2.92-1.69-5.23-3.99-6.92-6.9-1.69-2.92-2.53-6.11-2.53-9.59s.84-6.68,2.53-9.59c1.69-2.92,4-5.21,6.96-6.87,2.96-1.66,6.18-2.5,9.71-2.5s6.76.85,9.71,2.54c2.94,1.69,5.27,3.99,7,6.87,1.71,2.9,2.57,6.08,2.57,9.56s-.86,6.68-2.57,9.59c-1.71,2.92-4.06,5.21-7.03,6.9-2.98,1.69-6.22,2.54-9.75,2.54s-6.75-.85-9.68-2.54ZM709.18,44.54c1.77-1.88,2.64-4.25,2.64-7.11s-.88-5.25-2.64-7.19c-1.77-1.92-3.96-2.9-6.62-2.9s-4.93.96-6.66,2.86c-1.73,1.9-2.6,4.31-2.6,7.22s.88,5.23,2.6,7.11c1.73,1.88,3.96,2.82,6.66,2.82s4.86-.94,6.62-2.82ZM755.99,22.44c2.42,2.67,3.63,6.21,3.63,10.61v22.54h-9.71v-21.16c0-2.11-.61-3.8-1.84-5.1-1.23-1.3-2.85-1.94-4.82-1.94s-3.61.64-4.89,1.94c-1.28,1.3-1.92,2.99-1.92,5.1v21.16h-9.79V19.34h8.99v3.29c1.25-1.26,2.79-2.28,4.6-3.05,1.81-.75,3.78-1.13,5.9-1.13,4.15,0,7.44,1.34,9.84,4.01l.02-.02ZM769.47,54.59c-2.57-1.24-4.65-2.97-6.31-5.17l4.93-6c3.15,3.27,6.49,4.91,10.07,4.91,1.3,0,2.4-.26,3.26-.77.86-.51,1.3-1.26,1.3-2.24,0-.79-.28-1.37-.84-1.79-.56-.41-1.51-.92-2.86-1.5l-3.83-1.62c-3.29-1.37-5.73-2.9-7.35-4.55-1.62-1.66-2.42-3.84-2.42-6.55,0-3.42,1.23-6.09,3.67-8.01,2.44-1.9,5.62-2.86,9.53-2.86,5.36,0,9.66,1.81,12.89,5.42l-4.93,6.08c-2.42-2.29-5.1-3.44-8.04-3.44-1.21,0-2.16.23-2.83.66-.67.45-1.02,1.09-1.02,1.92,0,.7.28,1.26.84,1.71.56.45,1.53.96,2.94,1.56l3.48,1.49c3.48,1.41,6.03,2.93,7.65,4.57,1.62,1.64,2.42,3.8,2.42,6.49,0,3.61-1.32,6.45-3.95,8.5-2.62,2.05-5.97,3.07-10.03,3.07-3.15,0-5.99-.62-8.54-1.86h-.02Z"/>
  </g>
</svg>